<svg version="1.1" id="Layer_1" xmlns="http://www.w3.org/2000/svg" xmlns:xlink="http://www.w3.org/1999/xlink" x="0px" y="0px"
	 viewBox="0 0 1080 445.78" style="enable-background:new 0 0 1080 445.78;" xml:space="preserve">
<style type="text/css">
	.st0{fill:none;stroke:#E21815;stroke-width:6;stroke-linecap:round;stroke-miterlimit:10;}
	.st1{fill:#E21815;}
	.st2{fill:#2860A1;}
	.st3{fill:#FFFFFF;}
	.st4{font-family:'MyriadPro-Regular';}
	.st5{font-size:15px;}
	.st6{fill:none;}
	.st7{opacity:0.09;fill:#E0E0E0;}
	.st8{fill:none;stroke:#2860A1;stroke-miterlimit:10;}
</style>
<g id="_x3C_linea_x3E_">
	<line class="st0" x1="0" y1="368.03" x2="1080" y2="368.03"/>
	<text style="font-size:30px;"> DATOS CURIOSOS
	<textPath xlink:href="#_x3C_linea_x3E_">
	</textPath> 
	</text>
	<g>
		<circle class="st1" cx="119.8" cy="368.03" r="44.38"/>
		<g>
			<defs>
				<circle id="SVGID_1_" cx="119.8" cy="368.03" r="35.74"/>
			</defs>
			<clipPath id="SVGID_2_">
				<use xlink:href="#SVGID_1_"  style="overflow:visible;"/>
			</clipPath>
			<g transform="matrix(1 0 0 1 -1.907349e-06 3.051758e-05)" style="clip-path:url(#SVGID_2_);">
				
					<image style="overflow:visible;" width="236" height="335" xlink:href="images/imagen2/2d1d3e84ebd09af7eff5b5d00985b4d8.jpeg"  transform="matrix(0.6528 0 0 0.6366 22.7561 331.0499)">
				</image>
			</g>
		</g>
	</g>
	<g>
		<circle class="st1" cx="281.26" cy="368.03" r="44.38"/>
		<g>
			<defs>
				<circle id="SVGID_3_" cx="281.26" cy="368.03" r="35.74"/>
			</defs>
			<clipPath id="SVGID_4_">
				<use xlink:href="#SVGID_3_"  style="overflow:visible;"/>
			</clipPath>
			<g transform="matrix(1 0 0 1 1.525879e-05 0)" style="clip-path:url(#SVGID_4_);">
				
					<image style="overflow:visible;" width="250" height="339" xlink:href="images/imagen2/Hwasa_KISS_NEW_YORK_26-04-2021_5.jpeg"  transform="matrix(0.405 0 0 0.405 233.4214 326.0788)">
				</image>
			</g>
		</g>
	</g>
	<g>
		<circle class="st1" cx="457.97" cy="368.03" r="44.38"/>
		<g>
			<defs>
				<circle id="SVGID_5_" cx="457.97" cy="368.03" r="35.74"/>
			</defs>
			<clipPath id="SVGID_6_">
				<use xlink:href="#SVGID_5_"  style="overflow:visible;"/>
			</clipPath>
			<g style="clip-path:url(#SVGID_6_);">
				
					<image style="overflow:visible;" width="600" height="720" xlink:href="images/imagen2/tumblr_cd39473c4062fa9b9938baaac8aa2f25_3f5ffcd2_640.jpeg"  transform="matrix(0.2324 0 0 0.2324 368.0597 327.0276)">
				</image>
			</g>
		</g>
	</g>
	<g>
		<circle class="st1" cx="619.56" cy="368.03" r="44.38"/>
		<g>
			<defs>
				<circle id="SVGID_7_" cx="619.56" cy="368.03" r="35.74"/>
			</defs>
			<clipPath id="SVGID_8_">
				<use xlink:href="#SVGID_7_"  style="overflow:visible;"/>
			</clipPath>
			<g transform="matrix(1 0 0 1 0 3.051758e-05)" style="clip-path:url(#SVGID_8_);">
				
					<image style="overflow:visible;" width="1080" height="1080" xlink:href="images/imagen2/CKy7VQdJgFm.jpeg"  transform="matrix(0.1566 0 0 0.1566 543.7903 331.0884)">
				</image>
			</g>
		</g>
	</g>
	<g>
		<circle class="st1" cx="965.55" cy="368.03" r="44.38"/>
		<g>
			<defs>
				<circle id="SVGID_9_" cx="965.55" cy="368.03" r="35.74"/>
			</defs>
			<clipPath id="SVGID_10_">
				<use xlink:href="#SVGID_9_"  style="overflow:visible;"/>
			</clipPath>
			<g style="clip-path:url(#SVGID_10_);">
				
					<image style="overflow:visible;" width="1538" height="2046" xlink:href="images/imagen2/dda040799ce31fec20141abb038e922a.jpeg"  transform="matrix(0.0621 0 0 0.0621 906.7836 307.2513)">
				</image>
			</g>
		</g>
	</g>
	<g>
		<circle class="st1" cx="796.14" cy="368.03" r="44.38"/>
		<g>
			<defs>
				<circle id="SVGID_11_" cx="796.14" cy="368.03" r="35.74"/>
			</defs>
			<clipPath id="SVGID_12_">
				<use xlink:href="#SVGID_11_"  style="overflow:visible;"/>
			</clipPath>
			<g transform="matrix(1 0 0 1 0 -3.051758e-05)" style="clip-path:url(#SVGID_12_);">
				
					<image style="overflow:visible;" width="1200" height="1200" xlink:href="images/imagen2/bts-v-mixtape-fecha-de-estreno-rumores_1_crop1613417234142.jpg_423682103.jpg"  transform="matrix(0.1482 0 0 0.1474 705.0652 317.3364)">
				</image>
			</g>
		</g>
	</g>
</g>
<circle id="BTN-KYO" class="st7" cx="281.26" cy="368.03" r="44.38"/>
<g id="G-KYO" style="display:none;">
	<path class="st2" d="M225.84,116.38H44.68c-18.71,0-33.87,15.17-33.87,33.87v70.84c0,18.71,15.17,33.87,33.87,33.87l69.36-0.69
		l16.39,67.15l20.79-66.46h74.61c18.71,0,33.87-15.17,33.87-33.87v-70.84C259.71,131.55,244.54,116.38,225.84,116.38z"/>
	<circle class="st3" cx="43.19" cy="141.07" r="4.44"/>
	<text transform="matrix(1 0 0 1 53.8101 144.5887)" class="st3 st4 st5">Kyo es un fan de Star Wars</text>
	<circle class="st3" cx="43.19" cy="162.88" r="4.44"/>
	<rect x="53.81" y="153.85" class="st6" width="185.7" height="32.66"/>
	<text transform="matrix(1 0 0 1 53.8101 166.4049)"><tspan x="0" y="0" class="st3 st4 st5">Kyo tuvo muchos accidentes </tspan><tspan x="0" y="15" class="st3 st4 st5">en su vida.</tspan></text>
	<circle class="st3" cx="43.19" cy="199.37" r="4.44"/>
	<rect x="53.81" y="190.34" class="st6" width="194.82" height="46.34"/>
	<text transform="matrix(1 0 0 1 53.8101 202.8932)"><tspan x="0" y="0" class="st3 st4 st5">Ama dormir. Él dice que es </tspan><tspan x="0" y="15" class="st3 st4 st5">capaz de dormirse en </tspan><tspan x="0" y="30" class="st3 st4 st5">cualquier momento o lugar.</tspan></text>
</g>

<!-- <circle id="BTN-KYO" class="st7" cx="281.26" cy="368.03" r="44.38"/> -->


<g id="G-HWASA" style="display:none ;">
	<path class="st2" d="M388.35,116.38H207.2c-18.71,0-33.87,15.17-33.87,33.87v70.84c0,18.71,15.17,33.87,33.87,33.87h61.96
		l12.16,66.46l16.46-66.46h90.58c18.71,0,33.87-15.17,33.87-33.87v-70.84C422.23,131.55,407.06,116.38,388.35,116.38z"/>
	<circle class="st3" cx="205.7" cy="133.99" r="4.44"/>
	<rect x="216.33" y="124.96" class="st6" width="183.12" height="32.82"/>
	<text transform="matrix(1 0 0 1 216.3275 137.5159)"><tspan x="0" y="0" class="st3 st4 st5">Sus artistas favoritas son </tspan><tspan x="0" y="15" class="st3 st4 st5">Rihanna y Beyoncé.</tspan></text>
	<circle class="st3" cx="205.7" cy="167.38" r="4.44"/>
	<rect x="216.33" y="158.34" class="st6" width="194.82" height="32.66"/>
	<text transform="matrix(1 0 0 1 216.3285 170.8996)"><tspan x="0" y="0" class="st3 st4 st5">Por su humor negro, muchos </tspan><tspan x="0" y="15" class="st3 st4 st5">fans le dicen Happy Dark Virus.</tspan></text>
	<circle class="st3" cx="205.7" cy="201.47" r="4.44"/>
	<rect x="216.33" y="192.43" class="st6" width="194.82" height="62.54"/>
	<text transform="matrix(1 0 0 1 216.328 204.9879)"><tspan x="0" y="0" class="st3 st4 st5">Tiene 4 tatuajes, la palabra </tspan><tspan x="0" y="15" class="st3 st4 st5">“María”, “Paradise is where you </tspan><tspan x="0" y="30" class="st3 st4 st5">are” , la palabra “Resonance” y </tspan><tspan x="0" y="45" class="st3 st4 st5">una triquetra.</tspan></text>
</g>
<circle id="BTN_HWASA" class="st7" cx="281.26" cy="368.03" r="44.38"/>

<g id="G_HITSU" style="display:none;">
	<path class="st2" d="M561.23,116.38H380.08c-18.71,0-33.87,15.17-33.87,33.87v70.84c0,18.71,15.17,33.87,33.87,33.87h67.47
		l10.59,68.69l17.33-68.69h85.77c18.71,0,33.87-15.17,33.87-33.87v-70.84C595.11,131.55,579.94,116.38,561.23,116.38z"/>
	<circle class="st3" cx="378.58" cy="133.99" r="4.44"/>
	<rect x="389.21" y="124.96" class="st6" width="183.12" height="32.82"/>
	<text transform="matrix(1 0 0 1 389.2077 137.5159)"><tspan x="0" y="0" class="st3 st4 st5">Hizo la canción de un </tspan><tspan x="0" y="15" class="st3 st4 st5">videojuego</tspan></text>
	<circle class="st3" cx="378.58" cy="167.38" r="4.44"/>
	<rect x="389.21" y="158.34" class="st6" width="194.82" height="32.66"/>
	<text transform="matrix(1 0 0 1 389.2087 170.8996)"><tspan x="0" y="0" class="st3 st4 st5">Es el integrante más joven de </tspan><tspan x="0" y="15" class="st3 st4 st5">NIGHTMARE.</tspan></text>
	<circle class="st3" cx="378.58" cy="201.47" r="4.44"/>
	<rect x="389.21" y="192.43" class="st6" width="194.82" height="62.54"/>
	<text transform="matrix(1 0 0 1 389.2082 204.9879)"><tspan x="0" y="0" class="st3 st4 st5">Tiene 2 o 3 tatuajes uno en una </tspan><tspan x="0" y="15" class="st3 st4 st5">pierna y el otro se cree que es </tspan><tspan x="0" y="30" class="st3 st4 st5">de hombro a hombro </tspan><tspan x="0" y="45" class="st3 st4 st5">cruzandole por el pecho.</tspan></text>
</g>
<circle id="BTN_HITSU" class="st7" cx="457.97" cy="368.03" r="44.38"/>
<g id="G-RUKI" style="display: none;">
	<path class="st2" d="M728,116.38H546.85c-18.71,0-33.87,15.17-33.87,33.87v70.84c0,18.71,15.17,33.87,33.87,33.87h58.37
		l13.77,68.69l18.43-68.69H728c18.71,0,33.87-15.17,33.87-33.87v-70.84C761.88,131.55,746.71,116.38,728,116.38z"/>
	<circle class="st3" cx="545.35" cy="147.2" r="4.44"/>
	<rect x="555.98" y="138.17" class="st6" width="183.12" height="32.82"/>
	<text transform="matrix(1 0 0 1 555.976 150.7268)"><tspan x="0" y="0" class="st3 st4 st5">Piercings: 5 en la oreja </tspan><tspan x="0" y="15" class="st3 st4 st5">derecha.</tspan></text>
	<circle class="st3" cx="545.35" cy="180.59" r="4.44"/>
	<rect x="555.98" y="171.56" class="st6" width="194.82" height="32.66"/>
	<text transform="matrix(1 0 0 1 555.976 184.11)"><tspan x="0" y="0" class="st3 st4 st5">Odia tener que mostrar su </tspan><tspan x="0" y="15" class="st3 st4 st5">pecho.</tspan></text>
	<circle class="st3" cx="545.35" cy="214.68" r="4.44"/>
	<rect x="555.98" y="205.64" class="st6" width="194.82" height="19.55"/>
	<text transform="matrix(1 0 0 1 555.976 218.1989)" class="st3 st4 st5">A veces diseña joyería.</text>
</g>
<circle id="BTN_RUKI" class="st7" cx="619.56" cy="368.03" r="44.38"/>
<g id="G-VI" style="display:none;">
	<path class="st2" d="M895.94,116.38H714.78c-18.71,0-33.87,15.17-33.87,33.87v70.84c0,18.71,15.17,33.87,33.87,33.87l68.8-0.31
		l12.29,66.78l19.59-66.46h80.47c18.71,0,33.87-15.17,33.87-33.87v-70.84C929.81,131.55,914.64,116.38,895.94,116.38z"/>
	<circle class="st3" cx="713.29" cy="138.07" r="4.44"/>
	<rect x="723.91" y="129.03" class="st6" width="183.12" height="43.51"/>
	<text transform="matrix(1 0 0 1 723.9111 141.5889)"><tspan x="0" y="0" class="st3 st4 st5">Comenzó a tocar el saxofón </tspan><tspan x="0" y="15" class="st3 st4 st5">para estar más cerca de una </tspan><tspan x="0" y="30" class="st3 st4 st5">carrera musical</tspan></text>
	<circle class="st3" cx="713.29" cy="187.46" r="4.44"/>
	<rect x="723.91" y="178.43" class="st6" width="194.82" height="43.87"/>
	<text transform="matrix(1 0 0 1 723.9111 190.982)"><tspan x="0" y="0" class="st3 st4 st5">Utiliza un alter ego llamado </tspan><tspan x="0" y="15" class="st3 st4 st5">Vante cuando participa en </tspan><tspan x="0" y="30" class="st3 st4 st5">artes visuales.</tspan></text>
	<circle class="st3" cx="713.29" cy="235.33" r="4.44"/>
	<rect x="723.91" y="226.29" class="st6" width="194.82" height="19.55"/>
	<text transform="matrix(1 0 0 1 723.9102 238.8478)" class="st3 st4 st5">Ama la fotografía. </text>
</g>
<circle id="BTN_V" class="st7" cx="796.14" cy="368.03" r="44.38" opacity="50%"/>

<g id="G-RYO" style="display:none;">
	<path class="st2" d="M1042.97,116.38H871.61c-18.71,0-33.87,15.17-33.87,33.87v70.84c0,18.71,15.17,33.87,33.87,33.87l79.16-0.31
		l12.56,66.78l19.24-66.46h60.4c18.71,0,33.87-15.17,33.87-33.87v-70.84C1076.84,131.55,1061.68,116.38,1042.97,116.38z"/>
	<circle class="st3" cx="863.65" cy="139.47" r="4.44"/>
	<rect x="874.27" y="130.43" class="st6" width="183.12" height="29.31"/>
	<text transform="matrix(1 0 0 1 874.2734 142.9889)"><tspan x="0" y="0" class="st3 st4 st5">Banda favorita: Radiohead y </tspan><tspan x="0" y="15" class="st3 st4 st5">The Cure</tspan></text>
	<circle class="st3" cx="863.65" cy="178.35" r="4.44"/>
	<rect x="874.27" y="169.31" class="st6" width="194.82" height="31.81"/>
	<text transform="matrix(1 0 0 1 874.2734 181.8697)"><tspan x="0" y="0" class="st3 st4 st5">Estacion del año favorita: </tspan><tspan x="0" y="15" class="st3 st4 st5">Primavera</tspan></text>
	<circle class="st3" cx="863.65" cy="218.21" r="4.44"/>
	<rect x="874.27" y="209.63" class="st6" width="194.82" height="33.32"/>
	<text transform="matrix(1 0 0 1 874.2734 222.1887)"><tspan x="0" y="0" class="st3 st4 st5">Le gusta que los fans le llamen </tspan><tspan x="0" y="15" class="st3 st4 st5">Ryu.</tspan></text>
</g>
<circle id="BTN_Ryo" fill="red" opacity="100%" class="st7" cx="965.55" cy="368.03" r="44.38"/>
<line class="st8" x1="0" y1="62.55" x2="1080" y2="62.55"/>



<!-- Las animaciones -->
<animate 
    xlink:href="#G-RYO"
     fill="freeze" 
     dur="0.2s" 
     begin="BTN_Ryo.mouseover"
      attributeName="display"
      from="none" 
      to="block" 
      />
<animate 
    xlink:href="#G-RYO"
     fill="freeze" 
     dur="0.5s" 
     begin="BTN_Ryo.mouseout"
      attributeName="display"
      from="block" 
      to="none" 
      />


<animate 
    xlink:href="#G-VI"
     fill="freeze" 
     dur="0.2s" 
     begin="BTN_V.mouseover"
      attributeName="display"
      from="none" 
      to="block" 
      />
<animate 
    xlink:href="#G-VI"
     fill="freeze" 
     dur="0.5s" 
     begin="BTN_V.mouseout"
      attributeName="display"
      from="block" 
      to="none" 
      />


<animate 
    xlink:href="#G-RUKI"
     fill="freeze" 
     dur="0.2s" 
     begin="BTN_RUKI.mouseover"
      attributeName="display"
      from="none" 
      to="block" 
      />
<animate 
    xlink:href="#G-RUKI"
     fill="freeze" 
     dur="0.5s" 
     begin="BTN_RUKI.mouseout"
      attributeName="display"
      from="block" 
      to="none" 
      />


<animate 
    xlink:href="#G_HITSU"
     fill="freeze" 
     dur="0.2s" 
     begin="BTN_HITSU.mouseover"
      attributeName="display"
      from="none" 
      to="block" 
      />
<animate 
    xlink:href="#G_HITSU"
     fill="freeze" 
     dur="0.5s" 
     begin="BTN_HITSU.mouseout"
      attributeName="display"
      from="block" 
      to="none" 
      />

<animate 
    xlink:href="#G-HWASA"
     fill="freeze" 
     dur="0.2s" 
     begin="BTN_HWASA.mouseover"
      attributeName="display"
      from="none" 
      to="block" 
      />
<animate 
    xlink:href="#G-HWASA"
     fill="freeze" 
     dur="0.5s" 
     begin="BTN_HWASA.mouseout"
      attributeName="display"
      from="block" 
      to="none" 
      />


<animate 
    xlink:href="#G-KYO"
     fill="freeze" 
     dur="0.2s" 
     begin="BTN-KYO.mouseover"
      attributeName="display"
      from="none" 
      to="block" 
      />
<animate 
    xlink:href="#G-KYO"
     fill="freeze" 
     dur="0.5s" 
     begin="BTN-KYO.mouseout"
      attributeName="display"
      from="block" 
      to="none" 
      />




</svg>